# xmcd
#
# Track frame offsets: 
#        150
#        15530
#        35643
#        62903
#        86098
#        101093
#        117888
#        145825
#        159665
#
# Disc length: 2401 seconds
#
# Revision: 2
# Processed by: cddbd v1.5.2PL0 Copyright (c) Steve Scherf et al.
# Submitted via: ExactAudioCopy v1.0b3
#
DISCID=77095f09
DTITLE=Cooder, Ry - Chicken Skin Music
DYEAR=1976
DGENRE=Latin
TTITLE0=The Bourgeois Blues
TTITLE1=I Got Mine
TTITLE2=Always Lift Him Up - Kanaka Wai Wai
TTITLE3=He'll Have To Go
TTITLE4=Smack Dab In The Middle
TTITLE5=Stand By Me
TTITLE6=Yellow Roses
TTITLE7=Chloe
TTITLE8=Goodnight Irene
EXTD=
EXTT0=Huddie Ledbetter - Alan Lomax
EXTT1=Traditional
EXTT2=Alfred Reed - Traditional
EXTT3=Allison - Allison
EXTT4=Charles E. Calhoun
EXTT5=Ben E. King - Jerry Leiber - Mike Stoller
EXTT6=K. Devine - S. Nichols
EXTT7=Gus Kahn - Neil Moret
EXTT8=Huddie Ledbetter and John Lomax
PLAYORDER=
